# xmcd
#
# Track frame offsets:
#	150
#	21222
#	39292
#	57264
#	75497
#	91377
#	110705
#	131013
#	149788
#	165940
#	182960
#	201038
#	218922
#	242317
#	311845
#	335554
#	355869
#
# Disc length: 4745 seconds
#
# Revision: 0
# Processed by: cddbd v1.5.1PL0 Copyright (c) Steve Scherf et al.
# Submitted via: dBpowerAMP V4.0
#
DISCID=f5128711
DTITLE=Joss Stone  - Mind Body And Soul
DYEAR=2004
DGENRE=Blues
TTITLE0=Right to be Wrong
TTITLE1=Jet Lag
TTITLE2=You Had Me
TTITLE3=Spoiled
TTITLE4=Don't Cha Wanna Ride
TTITLE5=Less is More
TTITLE6=Security
TTITLE7=Young at Heart
TTITLE8=Snakes and Ladders
TTITLE9=Understand
TTITLE10=Don't Know How
TTITLE11=Torn and Tattered
TTITLE12=Killing Time
TTITLE13=Sleep Like a Child
TTITLE14=Hidden track 1
TTITLE15=DATA
TTITLE16=Hidden track 2
EXTD=
EXTT0=
EXTT1=
EXTT2=
EXTT3=
EXTT4=
EXTT5=
EXTT6=
EXTT7=
EXTT8=
EXTT9=
EXTT10=
EXTT11=
EXTT12=
EXTT13=
EXTT14=
EXTT15=
EXTT16=
PLAYORDER=
